<?xml version="1.0" standalone="no"?>
<!DOCTYPE svg PUBLIC "-//W3C//DTD SVG 20010904//EN"
 "http://www.w3.org/TR/2001/REC-SVG-20010904/DTD/svg10.dtd">
<svg version="1.0" xmlns="http://www.w3.org/2000/svg"
 width="145.000000pt" height="39.000000pt" viewBox="0 0 145.000000 39.000000"
 preserveAspectRatio="xMidYMid meet">

<g transform="translate(0.000000,39.000000) scale(0.100000,-0.100000)"
fill="#000000" stroke="none">
<path d="M272 303 c-22 -38 -67 -116 -100 -175 l-61 -108 27 0 c22 0 32 9 54
50 25 45 31 50 63 50 21 0 35 -5 35 -12 0 -7 11 -1 24 12 20 21 26 44 38 138
l15 112 -28 0 c-24 0 -34 -10 -67 -67z m31 -81 c-4 -27 -1 -42 11 -51 9 -7 16
-18 16 -24 0 -8 -3 -8 -11 0 -7 7 -26 9 -46 6 l-35 -6 17 34 c20 38 46 79 50
79 2 0 1 -17 -2 -38z"/>
<path d="M395 358 c-13 -42 -36 -271 -27 -280 5 -5 25 -8 43 -6 26 2 35 8 37
26 3 17 -2 22 -17 22 -25 0 -25 -3 -6 125 18 128 19 125 -5 125 -11 0 -22 -6
-25 -12z"/>
<path d="M510 363 c0 -5 -9 -69 -19 -143 -11 -74 -19 -136 -18 -136 1 -1 19
-5 39 -8 30 -5 39 -2 47 13 12 21 5 31 -21 31 -20 0 -19 7 3 139 14 87 12 111
-11 111 -11 0 -20 -3 -20 -7z"/>
<path d="M617 363 c-4 -3 -7 -12 -7 -20 0 -9 18 -13 65 -13 58 0 65 2 65 20 0
18 -7 20 -58 20 -32 0 -62 -3 -65 -7z"/>
<path d="M760 363 c0 -5 -7 -53 -15 -108 -8 -55 -15 -116 -15 -136 0 -32 3
-37 37 -47 61 -19 67 -10 86 140 21 164 21 158 -3 158 -11 0 -20 -2 -20 -5 0
-16 -32 -233 -36 -244 -3 -10 -8 -11 -15 -4 -6 6 -4 44 6 111 20 133 19 142
-5 142 -11 0 -20 -3 -20 -7z"/>
<path d="M897 363 c-19 -18 -5 -33 32 -33 22 0 42 -3 44 -7 9 -15 -8 -86 -22
-91 -11 -4 -13 5 -9 42 5 42 4 46 -16 46 -21 0 -24 -7 -35 -97 -7 -54 -15
-111 -18 -126 -5 -26 -3 -28 18 -25 21 3 25 10 32 66 6 40 13 62 20 59 12 -4
12 -43 1 -99 -4 -19 -1 -28 8 -28 28 0 37 18 43 80 3 36 10 93 16 128 14 86
11 92 -54 92 -30 0 -57 -3 -60 -7z"/>
<path d="M1046 303 c-4 -38 -10 -77 -13 -87 -4 -16 -1 -18 17 -13 44 11 52 0
44 -69 -6 -61 -5 -64 15 -64 11 0 21 3 21 8 0 4 4 33 10 65 6 39 6 64 -1 75
-8 13 -4 34 14 85 l25 67 -23 0 c-20 0 -27 -11 -49 -72 -24 -67 -25 -69 -20
-28 3 25 7 57 10 73 5 23 2 27 -19 27 -23 0 -25 -4 -31 -67z"/>
<path d="M1190 350 c-10 -19 -8 -20 35 -20 43 0 45 -1 44 -27 -2 -71 -25 -187
-38 -191 -15 -5 -15 -10 5 156 6 48 5 52 -15 52 -11 0 -21 -1 -21 -3 0 -2 -7
-52 -15 -111 -8 -59 -13 -112 -10 -116 9 -15 72 -23 92 -11 17 8 23 32 37 140
10 72 15 135 11 141 -3 5 -31 10 -60 10 -44 0 -56 -4 -65 -20z"/>
<path d="M647 298 c-12 -50 -29 -199 -23 -213 3 -8 12 -15 20 -15 13 0 16 13
42 208 6 37 4 42 -14 42 -12 0 -22 -8 -25 -22z"/>
<path d="M1026 159 c-12 -60 -8 -89 13 -89 18 0 31 39 31 98 0 36 -36 29 -44
-9z"/>
<path d="M302 98 c-18 -18 -15 -28 8 -28 13 0 20 7 20 20 0 23 -10 26 -28 8z"/>
</g>
</svg>
